# xmcd
#
# Track frame offsets:
#	150
#	16304
#	51120
#	84932
#	121433
#	145549
#	179100
#	199008
#	231785
#	244466
#
# Disc length: 3765 seconds
#
# Revision: 0
# Processed by: cddbd v1.5.2PL0 Copyright (c) Steve Scherf et al.
# Submitted via: audiograbber 1.83.01
#
DISCID=850eb30a
DTITLE=Kokomo - Monochrome Noise Love
DYEAR=2016
DGENRE=
TTITLE0=Pillls and pillows
TTITLE1=Kill the captain, feed the fishes
TTITLE2=Monochrome noise love
TTITLE3=Licht/Staub
TTITLE4=Jüngling mit Apfel
TTITLE5=Beware of pity
TTITLE6=I'm Bill Murray
TTITLE7=I'm not dead
TTITLE8=Me vs. myselves
TTITLE9=Deathmaster danger dance
EXTD=
EXTT0=
EXTT1=
EXTT2=
EXTT3=
EXTT4=
EXTT5=
EXTT6=
EXTT7=
EXTT8=
EXTT9=
PLAYORDER=
